<?xml version="1.0" encoding="UTF-8"?>
<svg version="1.1" xmlns="http://www.w3.org/2000/svg" width="148" height="148">
<path d="M0 0 C48.84 0 97.68 0 148 0 C148 48.84 148 97.68 148 148 C99.16 148 50.32 148 0 148 C0 99.16 0 50.32 0 0 Z " fill="#1D2238" transform="translate(0,0)"/>
<path d="M0 0 C11.27340975 8.47575006 18.23564803 19.11122557 21 33 C21.26965674 36.70004409 21.26684646 40.30121156 21 44 C19.0625 44.5625 19.0625 44.5625 17 45 C15.24693418 43.24693418 15.48950866 40.83200519 15.15185547 38.47680664 C13.1640089 25.06670788 8.4471439 14.08779331 -2 5 C-14.67963719 -3.98906646 -28.47892631 -7.81204587 -43.99609375 -5.56640625 C-55.79564564 -3.09601892 -65.08503008 3.03746053 -73 12 C-73 8.461918 -72.5898825 8.15800869 -70.1875 5.75 C-50.33881713 -13.14019517 -22.65928135 -15.08374152 0 0 Z " fill="#02F4A4" transform="translate(105,42)"/>
<path d="M0 0 C8.80322083 -0.655559 17.68204843 4.82015492 24.4375 10.1875 C31.66945878 17.07730159 36.40574763 26.67052122 37.3359375 36.578125 C37.46666224 48.86625034 34.74582544 57.0003403 27.87890625 67.1015625 C25.62997161 69.37387484 24.13341797 69.6882706 21 70 C20.30078125 68.28515625 20.30078125 68.28515625 20 66 C21.29296875 63.80859375 21.29296875 63.80859375 23.1875 61.4375 C30.53425738 51.3871359 32.45692999 41.63271188 30.59765625 29.33984375 C28.4795785 20.60450348 22.99290828 12.7694068 15.6875 7.5625 C10.76936094 4.5961399 5.45522691 2.73343659 0 1 C0 0.67 0 0.34 0 0 Z " fill="#03F0A2" transform="translate(78,45)"/>
<path d="M0 0 C0.33 0 0.66 0 1 0 C1 10.89 1 21.78 1 33 C-9.89 33 -20.78 33 -32 33 C-32 32.67 -32 32.34 -32 32 C-31.23816406 31.85304687 -30.47632812 31.70609375 -29.69140625 31.5546875 C-19.38333666 29.31548137 -10.85608608 25.08764578 -5 16 C-2.44838648 10.85588171 -0.60431917 5.74103215 0 0 Z " fill="#F9F9FA" transform="translate(147,115)"/>
<path d="M0 0 C0.33 0 0.66 0 1 0 C1.15855469 0.6290625 1.31710938 1.258125 1.48046875 1.90625 C4.19554177 11.86651786 8.45906568 18.98009281 17 25 C21.44287434 27.44766032 25.93495693 29.34644606 31 30 C31 30.33 31 30.66 31 31 C20.77 31 10.54 31 0 31 C0 20.77 0 10.54 0 0 Z " fill="#FAFAFA" transform="translate(0,117)"/>
<path d="M0 0 C10.23 0 20.46 0 31 0 C31 10.23 31 20.46 31 31 C30.67 31 30.34 31 30 31 C29.85304687 30.38253906 29.70609375 29.76507812 29.5546875 29.12890625 C27.0192148 19.55531106 22.37274393 11.57050712 14 6 C9.53554822 3.60256634 5.06351894 1.65335728 0 1 C0 0.67 0 0.34 0 0 Z " fill="#FAFAFA" transform="translate(117,0)"/>
<path d="M0 0 C10.23 0 20.46 0 31 0 C31 0.33 31 0.66 31 1 C29.2984375 1.3403125 29.2984375 1.3403125 27.5625 1.6875 C18.34261784 4.0331944 10.48958013 9.30457128 5.4921875 17.4609375 C3.15866401 21.90129935 1.40005957 25.93257877 1 31 C0.67 31 0.34 31 0 31 C0 20.77 0 10.54 0 0 Z " fill="#F8F9F9" transform="translate(0,0)"/>
<path d="M0 0 C5.07157372 3.98480792 7.31871994 10.04857564 8.390625 16.265625 C8.8032223 24.45862854 5.83834792 32.24010659 0.5625 38.4375 C-0.60512964 39.6445433 -1.79061626 40.83479466 -3 42 C-3.763125 42.763125 -4.52625 43.52625 -5.3125 44.3125 C-10.91574695 47.83081785 -17.3861258 49.52214796 -24 49 C-24.38218767 47.34385343 -24.71395102 45.67542976 -25 44 C-23.35519051 42.35519051 -21.19618855 42.56068618 -18.9375 42.25 C-11.01162886 40.84346587 -5.28822918 37.31586429 -0.25390625 31.01953125 C3.2388025 25.39420282 4.81831215 18.54649723 4 12 C3.06403538 9.32176358 2.01979736 6.73238776 0.875 4.13671875 C0 2 0 2 0 0 Z " fill="#03F3A4" transform="translate(95,67)"/>
<path d="M0 0 C0.33 0 0.66 0 1 0 C1.43245295 4.43264279 0.77253826 7.50545786 -1.58984375 11.32421875 C-5.11777926 15.51669613 -10.5541522 18.52424192 -15.98046875 19.2734375 C-21.43358158 19.52437721 -24.96636722 18.57196721 -29.46875 15.4453125 C-31 14 -31 14 -32 11.1875 C-32 10.465625 -32 9.74375 -32 9 C-28.44684757 8.58198207 -27.24602873 8.81690885 -24.3125 11 C-19.80507794 13.72146238 -16.14636532 13.82140684 -11 13 C-6.10527193 10.64327908 -3.68384398 7.67187656 -1 3 C-0.67 2.01 -0.34 1.02 0 0 Z " fill="#03F1A3" transform="translate(89,85)"/>
<path d="M0 0 C1.89878906 -0.02126953 1.89878906 -0.02126953 3.8359375 -0.04296875 C7.80823775 0.19864539 10.86534042 0.95856735 14.625 2.1875 C14.625 3.5075 14.625 4.8275 14.625 6.1875 C13.89796875 6.043125 13.1709375 5.89875 12.421875 5.75 C-3.35535619 2.8372804 -16.68816687 3.64021329 -30.59375 12.203125 C-34.66091251 15.10497691 -38.07434577 18.44999447 -41.375 22.1875 C-41.375 18.649418 -40.9648825 18.34550869 -38.5625 15.9375 C-27.87690355 5.76790821 -14.71862868 0.07463808 0 0 Z " fill="#05E49C" transform="translate(73.375,31.8125)"/>
<path d="M0 0 C8.80322083 -0.655559 17.68204843 4.82015492 24.4375 10.1875 C29.09693063 14.5953415 32.21818991 20.27120985 35 26 C35 26.66 35 27.32 35 28 C33.68 27.67 32.36 27.34 31 27 C30.67 27.66 30.34 28.32 30 29 C29.5875 27.80375 29.175 26.6075 28.75 25.375 C25.42418386 16.56314136 19.16507731 9.64850982 11 5 C7.38509888 3.49745001 3.72366405 2.20530898 0 1 C0 0.67 0 0.34 0 0 Z " fill="#05E79E" transform="translate(78,45)"/>
<path d="M0 0 C5.06142376 3.97683295 7.40608852 10.09715314 8.35546875 16.3359375 C8.55032206 21.62481299 7.75033344 27.40242769 5 32 C3.03125 32.62109375 3.03125 32.62109375 1 33 C-1.22977996 34.97901574 -1.22977996 34.97901574 -3 37 C-3.66 36.67 -4.32 36.34 -5 36 C-4.40251953 35.41605469 -4.40251953 35.41605469 -3.79296875 34.8203125 C1.64522345 29.07779324 3.46775253 23.25797979 4.4375 15.5 C3.91660033 11.33280266 2.56230408 7.96244641 0.875 4.13671875 C0 2 0 2 0 0 Z " fill="#06E19B" transform="translate(95,67)"/>
<path d="M0 0 C-0.33 0.66 -0.66 1.32 -1 2 C-2.75478992 2.46178682 -4.53092952 2.84320168 -6.3125 3.1875 C-17.27120964 5.79361406 -25.60825772 11.62993888 -33 20 C-33 16.461918 -32.5898825 16.15800869 -30.1875 13.75 C-23.39936847 7.28966557 -9.95668122 -3.51140498 0 0 Z " fill="#0EB481" transform="translate(65,34)"/>
<path d="M0 0 C0.33 0 0.66 0 1 0 C1.432238 4.43043951 0.76738235 7.49611573 -1.578125 11.3203125 C-4.15095932 14.35964975 -7.51226306 16.16301234 -11 18 C-11.33 17.01 -11.66 16.02 -12 15 C-10.10230719 12.99687982 -8.22520704 11.41890528 -6 9.75 C-2.5849559 6.97209099 -1.44972167 4.10754473 0 0 Z " fill="#05E79E" transform="translate(89,85)"/>
<path d="M0 0 C5.1574187 -0.41132787 8.75720449 0.91793454 13.25 3.25 C13.87390625 3.55035156 14.4978125 3.85070313 15.140625 4.16015625 C17.88948 5.55235652 19.74878835 6.60523884 21.421875 9.234375 C21.61265625 9.81703125 21.8034375 10.3996875 22 11 C19.12353494 9.98477704 16.8692524 8.90660886 14.375 7.125 C9.8465791 4.27377203 5.05562343 2.69120499 0 1 C0 0.67 0 0.34 0 0 Z " fill="#08DB98" transform="translate(78,45)"/>
<path d="M0 0 C-0.33 0.66 -0.66 1.32 -1 2 C-2.77734375 2.484375 -2.77734375 2.484375 -4.9375 2.75 C-5.64777344 2.84796875 -6.35804687 2.9459375 -7.08984375 3.046875 C-9 3 -9 3 -11 1 C-3.57142857 -1.42857143 -3.57142857 -1.42857143 0 0 Z " fill="#0BCF91" transform="translate(65,34)"/>
</svg>
