<?xml version="1.0" encoding="UTF-8"?>
<svg version="1.1" xmlns="http://www.w3.org/2000/svg" width="270" height="148">
<path d="M0 0 C89.1 0 178.2 0 270 0 C270 48.84 270 97.68 270 148 C180.9 148 91.8 148 0 148 C0 99.16 0 50.32 0 0 Z " fill="#FDFDFD" transform="translate(0,0)"/>
<path d="M0 0 C1.03125 0.00322266 2.0625 0.00644531 3.125 0.00976562 C4.74535156 0.02233398 4.74535156 0.02233398 6.3984375 0.03515625 C8.03039063 0.04192383 8.03039063 0.04192383 9.6953125 0.04882812 C12.38804412 0.06063835 15.08074759 0.0785742 17.7734375 0.09765625 C18.2684375 6.53265625 18.2684375 6.53265625 18.7734375 13.09765625 C19.2684375 12.23140625 19.7634375 11.36515625 20.2734375 10.47265625 C23.0854193 6.37184946 26.24003229 3.23231792 30.7734375 1.09765625 C37.21201464 0.05835837 43.31944654 0.23995533 48.7734375 4.09765625 C53.02919145 7.85855509 56.33227651 11.42675135 57.27734375 17.1484375 C57.39639345 23.77553746 57.16853406 28.46812671 52.59765625 33.5078125 C46.99683701 38.3890404 41.80934114 39.78235667 34.390625 39.484375 C29.14121053 38.70871525 25.96980916 36.41996177 22.3984375 32.47265625 C20.7734375 30.09765625 20.7734375 30.09765625 19.7734375 28.09765625 C19.75885498 29.05542969 19.74427246 30.01320313 19.72924805 31 C19.67085387 34.58613636 19.59362766 38.17167151 19.51098633 41.75732422 C19.47792888 43.30312268 19.44983847 44.84903629 19.42700195 46.39501953 C19.25851323 57.50093553 19.06296058 66.80813317 10.7734375 75.09765625 C5.96211528 78.70614792 0.79940035 78.72312335 -5.02734375 78.5703125 C-10.85538547 77.70927093 -14.13841189 74.88185706 -17.59765625 70.26953125 C-20.62785016 65.11086203 -21.11313062 59.95833815 -20.2265625 54.09765625 C-18.47392431 47.55137851 -14.71713081 44.56290413 -9.0546875 41.12890625 C-8.45140625 40.78859375 -7.848125 40.44828125 -7.2265625 40.09765625 C-8.13148437 39.47890625 -8.13148437 39.47890625 -9.0546875 38.84765625 C-14.40527897 34.98142241 -18.48958989 31.63415844 -20.2265625 25.09765625 C-21.22152169 18.55388618 -20.77219788 13.27487525 -16.86328125 7.8203125 C-12.2206646 2.93393077 -6.68202473 -0.03671442 0 0 Z " fill="#A25DFC" transform="translate(33.2265625,53.90234375)"/>
<path d="M0 0 C0.85478943 -0.00960754 1.70957886 -0.01921509 2.590271 -0.02911377 C3.96532806 -0.03548859 3.96532806 -0.03548859 5.36816406 -0.04199219 C6.32015686 -0.04769226 7.27214966 -0.05339233 8.25299072 -0.05926514 C10.26695651 -0.06870373 12.28093766 -0.07524459 14.29492188 -0.07910156 C17.3586766 -0.08878779 20.42175473 -0.11981421 23.48535156 -0.15136719 C25.4462851 -0.15789976 27.40722341 -0.16314923 29.36816406 -0.16699219 C30.27677185 -0.17933899 31.18537964 -0.19168579 32.121521 -0.20440674 C39.20295703 -0.17990578 45.14165468 1.07729194 50.94628906 5.41113281 C55.62612919 10.19980644 56.79699798 14.20258348 57.07128906 20.72363281 C56.87771401 26.6276719 55.17995594 29.70755382 50.91503906 33.81738281 C46.6439894 37.65408844 43.69010472 39.26128507 37.84619141 39.36987305 C36.38854874 39.39880898 36.38854874 39.39880898 34.90145874 39.42832947 C30.44752879 39.48627896 25.9937578 39.53537266 21.53955078 39.56616211 C19.19630163 39.58771184 16.85313231 39.62177821 14.51025391 39.66870117 C11.1213812 39.73592362 7.73417329 39.76320127 4.34472656 39.78222656 C2.78798721 39.82397255 2.78798721 39.82397255 1.19979858 39.86656189 C-6.10572942 39.84610187 -10.92534419 38.13082405 -16.36621094 33.16113281 C-20.22257403 28.14968115 -21.0717493 23.1035893 -20.81152344 16.84082031 C-19.81377904 10.83684963 -16.57284135 6.83131552 -11.80371094 3.22363281 C-8.03599415 0.6567126 -4.51303492 0.04116115 0 0 Z " fill="#FE7262" transform="translate(33.3662109375,14.8388671875)"/>
<path d="M0 0 C4.145625 0.103125 8.29125 0.20625 12.5625 0.3125 C12.5625 12.8525 12.5625 25.3925 12.5625 38.3125 C8.623125 38.43625 4.68375 38.56 0.625 38.6875 C-0.59823975 38.74212402 -1.82147949 38.79674805 -3.08178711 38.85302734 C-10.73578389 38.96857344 -15.79000771 37.6379724 -21.4375 32.3125 C-25.28642753 27.29021258 -26.14337512 22.2630612 -25.8828125 15.9921875 C-24.89383823 10.04099144 -21.856658 6.66342925 -17.59375 2.60546875 C-12.29814019 -1.0580994 -6.17249039 -0.21719232 0 0 Z " fill="#F34E1C" transform="translate(38.4375,15.6875)"/>
<path d="M0 0 C1.72766602 0.04060547 1.72766602 0.04060547 3.49023438 0.08203125 C6.30798683 0.15218276 9.12171789 0.25042201 11.9375 0.375 C12.05436443 4.39558602 12.12497388 8.41573082 12.1875 12.4375 C12.23777344 14.1380957 12.23777344 14.1380957 12.2890625 15.87304688 C12.36799666 22.6416511 12.06069273 26.91252204 7.9375 32.375 C1.96037085 37.90384446 -2.74227837 38.95706908 -10.79296875 38.8125 C-15.84105484 38.13700939 -18.75770244 36.1751112 -22.0625 32.375 C-25.6784202 27.55377307 -26.73639287 22.81070147 -26.43359375 16.828125 C-25.52190159 10.80136001 -23.12748363 6.80420822 -18.21875 3.1640625 C-12.33853618 -0.62052113 -6.79541381 -0.30585244 0 0 Z " fill="#05D081" transform="translate(39.0625,93.625)"/>
<path d="M0 0 C4.60190888 3.25500872 8.00079949 6.78264422 10.5625 11.8125 C11.58321339 17.99216789 11.71533163 24.07988712 8.0625 29.375 C3.99990387 33.85427265 -0.13221664 36.35528501 -6.1484375 37.1875 C-12.46954987 37.46458986 -16.38330087 36.62893608 -21.4375 32.8125 C-26.9744762 26.97622779 -27.91477421 21.51711273 -27.7421875 13.68359375 C-27.14456168 8.05211968 -23.96240296 5.05991266 -19.9375 1.4375 C-13.90361755 -2.86757343 -6.77008741 -2.33875747 0 0 Z " fill="#1EBCFE" transform="translate(79.4375,56.1875)"/>
<path d="M0 0 C0.95648438 0.00902344 1.91296875 0.01804688 2.8984375 0.02734375 C3.79820312 0.03894531 4.69796875 0.05054688 5.625 0.0625 C6.945 0.0625 8.265 0.0625 9.625 0.0625 C11.275 0.0625 12.925 0.0625 14.625 0.0625 C14.625 8.9725 14.625 17.8825 14.625 27.0625 C12.975 27.0625 11.325 27.0625 9.625 27.0625 C9.625 26.4025 9.625 25.7425 9.625 25.0625 C8.84125 25.578125 8.0575 26.09375 7.25 26.625 C2.38823967 28.55293944 -1.37522524 28.60773783 -6.375 27.0625 C-9.38286067 25.21379512 -10.96097622 23.29219634 -12.375 20.0625 C-13.29328764 15.10910899 -13.46627375 10.40893843 -11.30859375 5.76953125 C-7.87147101 0.79339833 -5.79068055 -0.06986076 0 0 Z " fill="#131313" transform="translate(242.375,60.9375)"/>
<path d="M0 0 C0 -0.66 0 -1.32 0 -2 C1.65 -2 3.3 -2 5 -2 C5.09938095 2.16253275 5.17170617 6.32442479 5.21972656 10.48779297 C5.23975843 11.90197795 5.26699248 13.31608097 5.30175781 14.72998047 C5.35065489 16.77071419 5.37305123 18.8103469 5.390625 20.8515625 C5.41157227 22.07697754 5.43251953 23.30239258 5.45410156 24.56494141 C4.79971335 29.51507162 2.57687426 32.60864036 -1.125 35.875 C-5.38591603 37.54231497 -9.47967965 37.23698767 -14 37 C-15.125 33.25 -15.125 33.25 -14 31 C-13.38511719 31.01160156 -12.77023438 31.02320313 -12.13671875 31.03515625 C-10.92435547 31.04869141 -10.92435547 31.04869141 -9.6875 31.0625 C-8.88699219 31.07410156 -8.08648437 31.08570313 -7.26171875 31.09765625 C-4.83138666 31.09657855 -4.83138666 31.09657855 -2 30 C-1.19436362 27.89415562 -1.19436362 27.89415562 -0.8125 25.4375 C-0.65394531 24.61121094 -0.49539062 23.78492187 -0.33203125 22.93359375 C-0.16767578 21.97646484 -0.16767578 21.97646484 0 21 C-0.58007812 21.16757813 -1.16015625 21.33515625 -1.7578125 21.5078125 C-6.74869017 22.80906443 -10.23549727 23.55656244 -15 21 C-16.375 18.875 -16.375 18.875 -17 17 C-17.66 17 -18.32 17 -19 17 C-19.05449838 15.27119018 -19.09301688 13.54187288 -19.125 11.8125 C-19.14820313 10.84957031 -19.17140625 9.88664062 -19.1953125 8.89453125 C-18.91404329 4.72612156 -17.96311369 1.96311369 -15 -1 C-10.1094844 -2.88096754 -4.31307492 -2.87538328 0 0 Z " fill="#151515" transform="translate(173,63)"/>
<path d="M0 0 C2.25 1.5 2.25 1.5 4 3 C4.66 3 5.32 3 6 3 C6.33 2.34 6.66 1.68 7 1 C10.60804955 -0.38771136 14.19870044 -0.46682626 18 0 C21.0968644 2.68961778 22.73707572 4.37624533 23.39868164 8.4621582 C23.4916685 11.28242175 23.43663877 14.05609491 23.3125 16.875 C23.28994141 17.84953125 23.26738281 18.8240625 23.24414062 19.828125 C23.18550753 22.22035515 23.10351153 24.6093615 23 27 C21.35 27 19.7 27 18 27 C17.970271 26.16021606 17.970271 26.16021606 17.93994141 25.3034668 C17.84462217 22.76434146 17.73497247 20.22603112 17.625 17.6875 C17.5940625 16.80642578 17.563125 15.92535156 17.53125 15.01757812 C17.47324219 13.74624023 17.47324219 13.74624023 17.4140625 12.44921875 C17.3826416 11.66893311 17.3512207 10.88864746 17.31884766 10.0847168 C17.10412111 7.69844232 17.10412111 7.69844232 15 5 C12 4.58333333 12 4.58333333 9 5 C6.56085508 7.43914492 6.71337477 8.21446431 6.5859375 11.5703125 C6.54726562 12.46621094 6.50859375 13.36210938 6.46875 14.28515625 C6.42234375 15.69087891 6.42234375 15.69087891 6.375 17.125 C6.33632812 18.06988281 6.29765625 19.01476562 6.2578125 19.98828125 C6.16338654 22.32532375 6.07781606 24.66235501 6 27 C4.68 27 3.36 27 2 27 C1.98018066 26.43490723 1.96036133 25.86981445 1.93994141 25.28759766 C1.84481764 22.73292003 1.73508942 20.17907459 1.625 17.625 C1.5940625 16.73554687 1.563125 15.84609375 1.53125 14.9296875 C1.49257812 14.07890625 1.45390625 13.228125 1.4140625 12.3515625 C1.36693115 11.17327881 1.36693115 11.17327881 1.31884766 9.97119141 C1.1600535 7.76997061 1.1600535 7.76997061 -1 6 C-3.64 6 -6.28 6 -9 6 C-9.33 13.26 -9.66 20.52 -10 28 C-11.65 28 -13.3 28 -15 28 C-15 19.09 -15 10.18 -15 1 C-12.69 1 -10.38 1 -8 1 C-5.19084526 -0.40457737 -3.11189466 -0.24895157 0 0 Z " fill="#0D0D0D" transform="translate(201,61)"/>
<path d="M0 0 C6.93 0 13.86 0 21 0 C21 1.65 21 3.3 21 5 C15.72 5 10.44 5 5 5 C5 8.63 5 12.26 5 16 C8.96 16 12.92 16 17 16 C17 17.65 17 19.3 17 21 C12.71 21 8.42 21 4 21 C4 27.27 4 33.54 4 40 C2.68 40 1.36 40 0 40 C0 26.8 0 13.6 0 0 Z " fill="#0D0D0D" transform="translate(112,48)"/>
<path d="M0 0 C3 1.375 3 1.375 5 4 C5.77205531 7.49487634 5.79545584 10.50789244 5 14 C2.75845184 17.45030109 -0.06355656 18.789778 -4.0625 19.6875 C-7.40242396 18.90581567 -9.04675125 17.69095542 -11.08203125 14.91796875 C-12.80339954 11.32140778 -12.76939159 7.86161304 -12 4 C-9.22453397 -0.74142114 -5.08037195 -0.94565339 0 0 Z " fill="#F6F6F6" transform="translate(247,66)"/>
<path d="M0 0 C2.4375 1.625 2.4375 1.625 4 4 C4.64250722 7.77472994 4.26836859 9.50620179 2.4375 12.875 C0 15 0 15 -3.5 15.625 C-7 15 -7 15 -9.4375 12.875 C-11.26836859 9.50620179 -11.64250722 7.77472994 -11 4 C-8.05899778 -0.47032338 -5.13105401 -0.73300772 0 0 Z " fill="#F7F7F7" transform="translate(169,66)"/>
<path d="M0 0 C1.32 0 2.64 0 4 0 C4 8.58 4 17.16 4 26 C2.68 26 1.36 26 0 26 C0 17.42 0 8.84 0 0 Z " fill="#000000" transform="translate(141,62)"/>
<path d="M0 0 C7.59 0 15.18 0 23 0 C23 0.33 23 0.66 23 1 C22.3709375 1.00257812 21.741875 1.00515625 21.09375 1.0078125 C14.14631926 1.32170244 9.93845809 3.07344181 5 8 C3.10057876 10.49552137 3.10057876 10.49552137 2 13 C1.34 14.32 0.68 15.64 0 17 C0 11.39 0 5.78 0 0 Z " fill="#EAE3F3" transform="translate(51,54)"/>
<path d="M0 0 C1.65 0.33 3.3 0.66 5 1 C4.67 2.65 4.34 4.3 4 6 C2.35 5.67 0.7 5.34 -1 5 C-0.67 3.35 -0.34 1.7 0 0 Z " fill="#0E0E0E" transform="translate(141,50)"/>
</svg>
