<?xml version="1.0" encoding="UTF-8"?>
<svg version="1.1" xmlns="http://www.w3.org/2000/svg" width="175" height="148">
<path d="M0 0 C57.75 0 115.5 0 175 0 C175 48.84 175 97.68 175 148 C117.25 148 59.5 148 0 148 C0 99.16 0 50.32 0 0 Z " fill="#FDFDFD" transform="translate(0,0)"/>
<path d="M0 0 C9.9 0 19.8 0 30 0 C30 0.99 30 1.98 30 3 C21.09 3 12.18 3 3 3 C3 8.61 3 14.22 3 20 C11.25 20 19.5 20 28 20 C28 20.99 28 21.98 28 23 C19.75 23 11.5 23 3 23 C3 29.27 3 35.54 3 42 C11.91 42 20.82 42 30 42 C30 42.99 30 43.98 30 45 C20.1 45 10.2 45 0 45 C0 30.15 0 15.3 0 0 Z " fill="#373737" transform="translate(46,51)"/>
<path d="M0 0 C0 3.49639802 -0.66724933 4.32674125 -2.6328125 7.1328125 C-3.19226563 7.93976562 -3.75171875 8.74671875 -4.328125 9.578125 C-4.92109375 10.41859375 -5.5140625 11.2590625 -6.125 12.125 C-7.8474581 14.5956752 -9.56827092 17.06736251 -11.28222656 19.54394531 C-12.4356842 21.19314711 -13.60998234 22.82795112 -14.80371094 24.44824219 C-15.3609082 25.22586914 -15.91810547 26.00349609 -16.4921875 26.8046875 C-16.99862793 27.49288574 -17.50506836 28.18108398 -18.02685547 28.89013672 C-19.32823539 31.71164332 -18.96546186 33.08017811 -18 36 C-16.82921804 38.12070309 -16.82921804 38.12070309 -15.3125 40.1015625 C-14.51199219 41.20757812 -14.51199219 41.20757812 -13.6953125 42.3359375 C-13.13585937 43.09132812 -12.57640625 43.84671875 -12 44.625 C-10.8925518 46.13562059 -9.7882419 47.64854829 -8.6875 49.1640625 C-7.95080078 50.16107178 -7.95080078 50.16107178 -7.19921875 51.17822266 C-6 53 -6 53 -5 56 C-5.99 56 -6.98 56 -8 56 C-9.39453125 54.48706055 -9.39453125 54.48706055 -10.8125 52.38671875 C-11.58980469 51.2565332 -11.58980469 51.2565332 -12.3828125 50.10351562 C-12.91648437 49.30623047 -13.45015625 48.50894531 -14 47.6875 C-15.05987893 46.12712268 -16.12229028 44.56846182 -17.1875 43.01171875 C-17.88939453 41.96697388 -17.88939453 41.96697388 -18.60546875 40.90112305 C-19.94258743 39.07826885 -21.35820927 37.54886489 -23 36 C-25.14820331 38.95661903 -27.29315614 41.91558094 -29.4375 44.875 C-30.35499023 46.13763672 -30.35499023 46.13763672 -31.29101562 47.42578125 C-31.87431641 48.23144531 -32.45761719 49.03710938 -33.05859375 49.8671875 C-33.86768188 50.98262939 -33.86768188 50.98262939 -34.69311523 52.12060547 C-36.04214515 53.9647311 -36.04214515 53.9647311 -37 56 C-37.99 56 -38.98 56 -40 56 C-38.18647842 50.07428934 -33.96677487 45.66365939 -30.08007812 40.97070312 C-26.87031278 36.93337678 -26.87031278 36.93337678 -25.7578125 32.01171875 C-27.53244234 27.70907849 -30.16588815 24.36497158 -33.0625 20.75 C-34.18244398 19.33131954 -35.29854115 17.909591 -36.41015625 16.484375 C-36.90652588 15.86272461 -37.40289551 15.24107422 -37.91430664 14.60058594 C-39 13 -39 13 -39 11 C-38.01 11 -37.02 11 -36 11 C-34.46606445 12.74414062 -34.46606445 12.74414062 -32.86328125 15.15625 C-32.28642578 16.01347656 -31.70957031 16.87070312 -31.11523438 17.75390625 C-30.52033203 18.66011719 -29.92542969 19.56632812 -29.3125 20.5 C-28.40274414 21.85931641 -28.40274414 21.85931641 -27.47460938 23.24609375 C-25.97377485 25.49143674 -24.48282711 27.74274091 -23 30 C-18.50702162 24.52103135 -14.39432478 18.75979527 -10.22070312 13.03710938 C-6.94367009 8.56521423 -3.60778752 4.21022642 0 0 Z " fill="#1D1D1D" transform="translate(118,40)"/>
<path d="M0 0 C4.3866644 1.0966661 4.65094914 1.35212934 6.98925781 4.87036133 C7.54373596 5.69244583 8.09821411 6.51453033 8.66949463 7.36152649 C9.55239166 8.70817635 9.55239166 8.70817635 10.453125 10.08203125 C11.07217712 11.00658615 11.69122925 11.93114105 12.32904053 12.88371277 C14.31351702 15.85292167 16.28188616 18.83242638 18.25 21.8125 C19.56014874 23.7786943 20.87133538 25.74419743 22.18359375 27.70898438 C25.26635462 32.3294745 28.33725531 36.95767371 31.40307617 41.5894165 C33.56944465 44.85958631 35.74487543 48.12361697 37.921875 51.38671875 C38.83598145 52.75703247 38.83598145 52.75703247 39.76855469 54.1550293 C40.17493164 54.76386963 40.58130859 55.37270996 41 56 C40.505 56.99 40.505 56.99 40 58 C32.53522961 48.13132051 25.5640465 37.98136753 18.74804688 27.65429688 C18.10416016 26.67912109 17.46027344 25.70394531 16.796875 24.69921875 C16.16845703 23.74708496 15.54003906 22.79495117 14.89257812 21.81396484 C12.4898853 18.24153999 9.98751106 14.74558012 7.45410156 11.26489258 C5.94714231 8.91766944 4.95003094 6.61662532 4 4 C3.34 4 2.68 4 2 4 C2 17.2 2 30.4 2 44 C1.34 44 0.68 44 0 44 C0 29.48 0 14.96 0 0 Z " fill="#272727" transform="translate(9,51)"/>
<path d="M0 0 C10.89 0 21.78 0 33 0 C33 0.66 33 1.32 33 2 C28.05 2 23.1 2 18 2 C18 15.86 18 29.72 18 44 C17.34 44 16.68 44 16 44 C16 30.14 16 16.28 16 2 C10.72 2 5.44 2 0 2 C0 1.34 0 0.68 0 0 Z " fill="#000000" transform="translate(115,51)"/>
<path d="M0 0 C4 1 4 1 5.25 3.0625 C5.4975 3.701875 5.745 4.34125 6 5 C5.01 5.495 5.01 5.495 4 6 C4 5.34 4 4.68 4 4 C3.34 4 2.68 4 2 4 C2 17.2 2 30.4 2 44 C1.34 44 0.68 44 0 44 C0 29.48 0 14.96 0 0 Z " fill="#0F0F0F" transform="translate(9,51)"/>
<path d="M0 0 C0 3.52701715 -0.71767293 4.40029258 -2.703125 7.23828125 C-3.27160156 8.05876953 -3.84007813 8.87925781 -4.42578125 9.72460938 C-5.32876953 11.00561523 -5.32876953 11.00561523 -6.25 12.3125 C-7.42209643 13.9959396 -8.59397634 15.67952998 -9.765625 17.36328125 C-10.32572266 18.15814941 -10.88582031 18.95301758 -11.46289062 19.77197266 C-12.78329583 21.6858891 -14.01437348 23.62732342 -15.234375 25.60546875 C-16.10835938 26.79076172 -16.10835938 26.79076172 -17 28 C-17.99 28 -18.98 28 -20 28 C-18.62040113 25.07178807 -17.03186051 22.50470389 -15.13671875 19.8828125 C-14.57919922 19.11066406 -14.02167969 18.33851562 -13.44726562 17.54296875 C-12.86654297 16.74503906 -12.28582031 15.94710937 -11.6875 15.125 C-11.11837891 14.33480469 -10.54925781 13.54460938 -9.96289062 12.73046875 C-6.78685675 8.34746907 -3.52213181 4.11025513 0 0 Z " fill="#242424" transform="translate(118,40)"/>
<path d="M0 0 C0.99 0 1.98 0 3 0 C4.53393555 1.74414062 4.53393555 1.74414062 6.13671875 4.15625 C6.71357422 5.01347656 7.29042969 5.87070312 7.88476562 6.75390625 C8.47966797 7.66011719 9.07457031 8.56632812 9.6875 9.5 C10.29400391 10.40621094 10.90050781 11.31242187 11.52539062 12.24609375 C13.02622515 14.49143674 14.51717289 16.74274091 16 19 C15.34 20.32 14.68 21.64 14 23 C13.43345703 21.75476563 13.43345703 21.75476563 12.85546875 20.484375 C10.69010122 16.4180427 8.09655499 12.90699095 5.3125 9.25 C0 2.2693884 0 2.2693884 0 0 Z " fill="#242424" transform="translate(79,51)"/>
<path d="M0 0 C0.33 0 0.66 0 1 0 C1.47189365 3.59569669 1.04894929 4.92296668 -0.93359375 8.04296875 C-1.75620349 9.10060985 -2.59127389 10.14865793 -3.4375 11.1875 C-6.4943031 14.91159359 -6.4943031 14.91159359 -9 19 C-9.99 19 -10.98 19 -12 19 C-10.42488485 14.29265588 -7.8278266 10.65709989 -4.9375 6.6875 C-4.47794922 6.04232422 -4.01839844 5.39714844 -3.54492188 4.73242188 C-2.39260983 3.13339855 -1.19977402 1.56372663 0 0 Z " fill="#1E1E1E" transform="translate(90,77)"/>
<path d="M0 0 C4.17781634 3.87671246 7.22712043 8.03587533 10.3125 12.8125 C10.76689453 13.50537109 11.22128906 14.19824219 11.68945312 14.91210938 C12.79831476 16.6045824 13.89991438 18.30180958 15 20 C14.67 20.66 14.34 21.32 14 22 C13.24074219 20.96359375 12.48148438 19.9271875 11.69921875 18.859375 C10.6953241 17.48957483 9.69141721 16.11978363 8.6875 14.75 C8.18798828 14.06808594 7.68847656 13.38617188 7.17382812 12.68359375 C6.68720703 12.01972656 6.20058594 11.35585937 5.69921875 10.671875 C5.2304834 10.02927734 4.76174805 9.38667969 4.27880859 8.72460938 C3.26651886 7.35942902 2.21252212 6.02518528 1.14453125 4.703125 C0 3 0 3 0 0 Z " fill="#3E3E3E" transform="translate(35,87)"/>
<path d="M0 0 C1.2065625 0.0309375 1.2065625 0.0309375 2.4375 0.0625 C2.7675 0.7225 3.0975 1.3825 3.4375 2.0625 C1.7875 1.7325 0.1375 1.4025 -1.5625 1.0625 C-1.5625 2.0525 -1.5625 3.0425 -1.5625 4.0625 C0.0875 4.3925 1.7375 4.7225 3.4375 5.0625 C3.1075 6.7125 2.7775 8.3625 2.4375 10.0625 C0.7875 10.0625 -0.8625 10.0625 -2.5625 10.0625 C-2.8925 9.0725 -3.2225 8.0825 -3.5625 7.0625 C-1.0875 7.5575 -1.0875 7.5575 1.4375 8.0625 C1.4375 7.4025 1.4375 6.7425 1.4375 6.0625 C0.1175 5.7325 -1.2025 5.4025 -2.5625 5.0625 C-3.125 3.125 -3.125 3.125 -3.5625 1.0625 C-2.5625 0.0625 -2.5625 0.0625 0 0 Z " fill="#515151" transform="translate(162.5625,82.9375)"/>
<path d="M0 0 C1.53445094 3.06890187 0.54984289 5.70094266 0 9 C-1.1446875 9.1546875 -1.1446875 9.1546875 -2.3125 9.3125 C-5.17059424 10.04364039 -6.15742885 10.76951913 -8 13 C-6.93867647 6.63205883 -5.24936675 3.86795445 0 0 Z " fill="#141414" transform="translate(99,67)"/>
<path d="M0 0 C0.66 0 1.32 0 2 0 C2 2.97 2 5.94 2 9 C0.35 9.33 -1.3 9.66 -3 10 C-3.33 9.01 -3.66 8.02 -4 7 C-2.68 7.33 -1.36 7.66 0 8 C0 5.36 0 2.72 0 0 Z " fill="#585858" transform="translate(155,83)"/>
<path d="M0 0 C0 3.83764027 -1.26535335 5.11486085 -3.5 8.1875 C-4.1496875 9.08855469 -4.799375 9.98960938 -5.46875 10.91796875 C-5.9740625 11.60503906 -6.479375 12.29210938 -7 13 C-7.66 12.34 -8.32 11.68 -9 11 C-6.03 7.37 -3.06 3.74 0 0 Z " fill="#3D3D3D" transform="translate(118,40)"/>
<path d="M0 0 C0.598125 0.804375 1.19625 1.60875 1.8125 2.4375 C3.80947276 5.22327984 3.80947276 5.22327984 7 6 C7 6.66 7 7.32 7 8 C5.00045254 8.04254356 2.99958364 8.04080783 1 8 C0 7 0 7 -0.0625 3.4375 C-0.041875 2.303125 -0.02125 1.16875 0 0 Z " fill="#F4F4F4" transform="translate(157,83)"/>
<path d="M0 0 C0.66 0 1.32 0 2 0 C0.125 4.75 0.125 4.75 -1 7 C-1.99 7 -2.98 7 -4 7 C-2.92598892 4.08482708 -2.22189824 2.22189824 0 0 Z " fill="#242424" transform="translate(82,89)"/>
<path d="M0 0 C0.99 0 1.98 0 3 0 C5 3 5 3 4.625 5.1875 C4.41875 5.785625 4.2125 6.38375 4 7 C0 2.25 0 2.25 0 0 Z " fill="#1B1B1B" transform="translate(79,51)"/>
</svg>
